<svg width="38" height="32" viewBox="0 0 38 32" fill="none" xmlns="http://www.w3.org/2000/svg">
<path d="M14.8089 3.68138V7.13538H3.03386C1.44186 7.13538 0.151855 5.84538 0.151855 4.25338V3.68138C0.151855 1.94438 1.55986 0.536377 3.29686 0.536377H17.9539C16.2169 0.536377 14.8089 1.94438 14.8089 3.68138Z" fill="#0B4D5E" stroke="#0B4D5E" stroke-width="0.3" stroke-miterlimit="10"/>
<path d="M4.72954 5.11626V4.41626H13.4415V5.11626C13.4415 6.23326 12.5355 7.13926 11.4185 7.13926H2.70654C3.82354 7.13926 4.72954 6.23326 4.72954 5.11626Z" fill="#8AE5CC" stroke="#0B4D5E" stroke-width="0.3" stroke-miterlimit="10"/>
<path d="M14.3314 31.51H30.9554V4.69799C30.9554 2.37399 29.0714 0.48999 26.7474 0.48999H5.42139H6.77239C8.85139 0.48999 10.5364 2.17499 10.5364 4.25399V27.716C10.5364 29.812 12.2364 31.51 14.3314 31.51Z" fill="#E9F5FA" stroke="#0B4D5E" stroke-width="0.3" stroke-miterlimit="10"/>
<path d="M18.986 27.129V25.614H37.848V27.129C37.848 29.548 35.887 31.509 33.468 31.509H14.605C17.024 31.509 18.985 29.548 18.985 27.129H18.986Z" fill="#8AE5CC" stroke="#0B4D5E" stroke-width="0.3" stroke-miterlimit="10"/>
<path d="M7.56592 25.925V27.715C7.56592 29.574 8.90292 31.117 10.6669 31.443H13.6369C11.8729 31.117 10.5359 29.573 10.5359 27.715V25.925H7.56592Z" fill="#4CAC92" stroke="#0B4D5E" stroke-width="0.3" stroke-miterlimit="10"/>
<path d="M18.9852 27.129V25.614H15.8502V27.129C15.8502 29.548 13.8892 31.509 11.4702 31.509H14.6052C17.0242 31.509 18.9852 29.548 18.9852 27.129Z" fill="#0B4D5E" stroke="#0B4D5E" stroke-width="0.3" stroke-miterlimit="10"/>
<path d="M7.5649 4.25426V6.05926H10.5349V4.25426C10.5349 2.37726 9.1589 0.82526 7.3619 0.54126H5.2749C6.6209 0.70426 7.5649 1.38826 7.5649 4.25426Z" fill="#E9F5FA" stroke="#0B4D5E" stroke-width="0.3" stroke-miterlimit="10"/>
<path d="M10.5359 6.05933H7.56592V12.6803H10.5359V6.05933Z" fill="#8AE5CC" stroke="#0B4D5E" stroke-width="0.3" stroke-miterlimit="10"/>
<path d="M10.5359 12.6824H7.56592V19.3044H10.5359V12.6824Z" fill="#8AE5CC" stroke="#0B4D5E" stroke-width="0.3" stroke-miterlimit="10"/>
<path d="M10.5359 19.303H7.56592V25.925H10.5359V19.303Z" fill="#4CAC92" stroke="#0B4D5E" stroke-width="0.3" stroke-miterlimit="10"/>
<path d="M27.0074 14.0311H14.0894" stroke="#0B4D5E" stroke-width="0.3" stroke-miterlimit="10"/>
<path d="M27.0074 16.8871H14.0894" stroke="#0B4D5E" stroke-width="0.3" stroke-miterlimit="10"/>
<path d="M27.0074 19.7432H14.0894" stroke="#0B4D5E" stroke-width="0.3" stroke-miterlimit="10"/>
<path d="M27.0074 22.5991H14.0894" stroke="#0B4D5E" stroke-width="0.3" stroke-miterlimit="10"/>
<path d="M16.2854 8.02314C16.4004 7.77814 16.4004 7.37814 16.2854 7.13414C16.1704 6.88914 16.2394 6.54114 16.4394 6.35814C16.6394 6.17614 16.7924 5.80614 16.7794 5.53614C16.7664 5.26614 16.9644 4.97014 17.2184 4.87814C17.4724 4.78614 17.7554 4.50314 17.8474 4.24914C17.9394 3.99514 18.2354 3.79714 18.5054 3.81014C18.7754 3.82314 19.1454 3.67014 19.3274 3.47014C19.5094 3.27014 19.8584 3.20114 20.1024 3.31614C20.3464 3.43114 20.7474 3.43114 20.9924 3.31614C21.2364 3.20114 21.5854 3.27114 21.7674 3.47014C21.9494 3.67014 22.3194 3.82314 22.5894 3.81014C22.8594 3.79714 23.1554 3.99514 23.2474 4.24914C23.3384 4.50314 23.6214 4.78614 23.8764 4.87814C24.1304 4.97014 24.3284 5.26614 24.3154 5.53614C24.3024 5.80614 24.4564 6.17614 24.6554 6.35814C24.8554 6.54014 24.9244 6.88914 24.8094 7.13414C24.6944 7.37814 24.6944 7.77814 24.8094 8.02314C24.9244 8.26814 24.8544 8.61714 24.6554 8.79914C24.4554 8.98114 24.3024 9.35114 24.3154 9.62114C24.3284 9.89114 24.1304 10.1861 23.8764 10.2781C23.6224 10.3701 23.3384 10.6531 23.2474 10.9071C23.1554 11.1611 22.8594 11.3591 22.5894 11.3471C22.3194 11.3341 21.9494 11.4871 21.7674 11.6871C21.5854 11.8871 21.2364 11.9561 20.9924 11.8411C20.7474 11.7261 20.3474 11.7261 20.1024 11.8411C19.8584 11.9561 19.5094 11.8861 19.3274 11.6871C19.1454 11.4871 18.7754 11.3341 18.5054 11.3471C18.2354 11.3591 17.9394 11.1621 17.8474 10.9071C17.7564 10.6531 17.4734 10.3701 17.2184 10.2781C16.9644 10.1861 16.7664 9.89014 16.7794 9.62114C16.7924 9.35114 16.6384 8.98114 16.4394 8.79914C16.2394 8.61714 16.1704 8.26814 16.2854 8.02314Z" fill="#0B4D5E"/>
<path d="M24.3414 7.57818C24.3414 9.67318 22.6434 11.3722 20.5484 11.3722C18.4534 11.3722 16.7544 9.67318 16.7544 7.57818C16.7544 5.48318 18.4524 3.78418 20.5484 3.78418C22.6444 3.78418 24.3414 5.48318 24.3414 7.57818Z" fill="#E9F5FA"/>
<path d="M19.6615 9.3431C19.8055 9.6131 19.6925 9.8291 19.6925 9.8291C19.6925 9.8291 19.4505 9.8011 19.3065 9.5311C19.1635 9.2601 19.1735 8.8501 19.1735 8.8501C19.1735 8.8501 19.5195 9.0721 19.6625 9.3421L19.6615 9.3431Z" fill="#0B4D5E"/>
<path d="M19.2475 10.0301C19.5525 10.0301 19.6915 9.83005 19.6915 9.83005C19.6915 9.83005 19.5545 9.62905 19.2485 9.62805C18.9425 9.62805 18.5845 9.82805 18.5845 9.82805C18.5845 9.82805 18.9415 10.0301 19.2475 10.0301Z" fill="#0B4D5E"/>
<path d="M19.0574 9.01307C19.1334 9.27407 18.9964 9.44107 18.9964 9.44107C18.9964 9.44107 18.7904 9.37307 18.7144 9.11307C18.6384 8.85307 18.7214 8.49707 18.7214 8.49707C18.7214 8.49707 18.9814 8.75207 19.0574 9.01307Z" fill="#0B4D5E"/>
<path d="M18.5744 9.53508C18.8394 9.59108 18.9974 9.44108 18.9974 9.44108C18.9974 9.44108 18.9134 9.24108 18.6484 9.18508C18.3824 9.12908 18.0354 9.23908 18.0354 9.23908C18.0354 9.23908 18.3094 9.47908 18.5754 9.53408L18.5744 9.53508Z" fill="#0B4D5E"/>
<path d="M18.6344 8.54914C18.6434 8.78614 18.4914 8.89914 18.4914 8.89914C18.4914 8.89914 18.3314 8.79814 18.3224 8.56114C18.3134 8.32414 18.4594 8.04114 18.4594 8.04114C18.4594 8.04114 18.6264 8.31214 18.6344 8.54914Z" fill="#0B4D5E"/>
<path d="M18.1135 8.88818C18.3265 8.99218 18.4915 8.89918 18.4915 8.89918C18.4915 8.89918 18.4635 8.71218 18.2495 8.60818C18.0365 8.50518 17.7195 8.52318 17.7195 8.52318C17.7195 8.52318 17.9005 8.78518 18.1135 8.88818Z" fill="#0B4D5E"/>
<path d="M18.4244 7.96806C18.3484 8.17706 18.1774 8.22206 18.1774 8.22206C18.1774 8.22206 18.0734 8.07806 18.1494 7.86906C18.2254 7.66006 18.4514 7.46606 18.4514 7.46606C18.4514 7.46606 18.5004 7.75906 18.4244 7.96806Z" fill="#0B4D5E"/>
<path d="M17.8514 8.08002C18.0004 8.24502 18.1764 8.22202 18.1764 8.22202C18.1764 8.22202 18.2174 8.05002 18.0694 7.88502C17.9204 7.72002 17.6384 7.62402 17.6384 7.62402C17.6384 7.62402 17.7024 7.91502 17.8514 8.08002Z" fill="#0B4D5E"/>
<path d="M18.3825 7.35617C18.2605 7.54217 18.0835 7.54517 18.0835 7.54517C18.0835 7.54517 18.0165 7.38117 18.1385 7.19517C18.2605 7.00917 18.5255 6.87317 18.5255 6.87317C18.5255 6.87317 18.5045 7.17017 18.3825 7.35617Z" fill="#0B4D5E"/>
<path d="M17.8005 7.33211C17.9065 7.52711 18.0825 7.54511 18.0825 7.54511C18.0825 7.54511 18.1635 7.38711 18.0565 7.19211C17.9505 6.99711 17.6975 6.83911 17.6975 6.83911C17.6975 6.83911 17.6935 7.13711 17.8005 7.33211Z" fill="#0B4D5E"/>
<path d="M18.5075 6.7931C18.3475 6.9231 18.1895 6.8761 18.1895 6.8761C18.1895 6.8761 18.1765 6.7121 18.3365 6.5831C18.4965 6.4531 18.7695 6.4071 18.7695 6.4071C18.7695 6.4071 18.6675 6.6641 18.5075 6.7931Z" fill="#0B4D5E"/>
<path d="M17.9995 6.60807C18.0385 6.81107 18.1895 6.87607 18.1895 6.87607C18.1895 6.87607 18.3045 6.75907 18.2655 6.55607C18.2265 6.35407 18.0475 6.14307 18.0475 6.14307C18.0475 6.14307 17.9595 6.40507 17.9985 6.60807H17.9995Z" fill="#0B4D5E"/>
<path d="M19.3205 5.64104C19.1875 5.64604 19.1235 5.56104 19.1235 5.56104C19.1235 5.56104 19.1805 5.47104 19.3135 5.46604C19.4465 5.46104 19.6055 5.54304 19.6055 5.54304C19.6055 5.54304 19.4535 5.63604 19.3205 5.64104Z" fill="#0B4D5E"/>
<path d="M19.1294 5.3481C19.0704 5.4681 19.1234 5.5601 19.1234 5.5601C19.1234 5.5601 19.2284 5.5441 19.2874 5.4241C19.3464 5.3041 19.3354 5.1261 19.3354 5.1261C19.3354 5.1261 19.1874 5.2281 19.1294 5.3481Z" fill="#0B4D5E"/>
<path d="M19.0375 5.92802C18.8685 5.95902 18.7705 5.86202 18.7705 5.86202C18.7705 5.86202 18.8265 5.73702 18.9965 5.70502C19.1655 5.67402 19.3845 5.74902 19.3845 5.74902C19.3845 5.74902 19.2065 5.89702 19.0375 5.92802Z" fill="#0B4D5E"/>
<path d="M18.7384 5.58907C18.6864 5.75307 18.7704 5.86207 18.7704 5.86207C18.7704 5.86207 18.9024 5.82207 18.9544 5.65807C19.0064 5.49407 18.9594 5.26807 18.9594 5.26807C18.9594 5.26807 18.7904 5.42607 18.7384 5.59007V5.58907Z" fill="#0B4D5E"/>
<path d="M18.7164 6.32814C18.5454 6.41514 18.4114 6.34314 18.4114 6.34314C18.4114 6.34314 18.4304 6.19114 18.6014 6.10414C18.7724 6.01714 19.0294 6.02614 19.0294 6.02614C19.0294 6.02614 18.8874 6.24114 18.7164 6.32814Z" fill="#0B4D5E"/>
<path d="M18.2884 6.06209C18.2854 6.25409 18.4104 6.34209 18.4104 6.34209C18.4104 6.34209 18.5374 6.25709 18.5414 6.06509C18.5444 5.87309 18.4224 5.64709 18.4224 5.64709C18.4224 5.64709 18.2934 5.86909 18.2894 6.06109L18.2884 6.06209Z" fill="#0B4D5E"/>
<path d="M19.5854 5.24515C19.4594 5.28715 19.4294 5.39015 19.4294 5.39015C19.4294 5.39015 19.5144 5.45415 19.6404 5.41115C19.7674 5.36915 19.8874 5.23615 19.8874 5.23615C19.8874 5.23615 19.7114 5.20215 19.5854 5.24515Z" fill="#0B4D5E"/>
<path d="M21.4355 9.3431C21.2915 9.6131 21.4045 9.8291 21.4045 9.8291C21.4045 9.8291 21.6475 9.8011 21.7905 9.5311C21.9335 9.2601 21.9235 8.8501 21.9235 8.8501C21.9235 8.8501 21.5775 9.0721 21.4345 9.3421L21.4355 9.3431Z" fill="#0B4D5E"/>
<path d="M21.8495 10.0301C21.5435 10.0301 21.4045 9.83005 21.4045 9.83005C21.4045 9.83005 21.5425 9.62905 21.8485 9.62805C22.1545 9.62805 22.5125 9.82805 22.5125 9.82805C22.5125 9.82805 22.1555 10.0301 21.8495 10.0301Z" fill="#0B4D5E"/>
<path d="M22.0383 9.01307C21.9623 9.27407 22.0993 9.44107 22.0993 9.44107C22.0993 9.44107 22.3053 9.37307 22.3813 9.11307C22.4573 8.85307 22.3743 8.49707 22.3743 8.49707C22.3743 8.49707 22.1143 8.75207 22.0383 9.01307Z" fill="#0B4D5E"/>
<path d="M22.5224 9.53508C22.2574 9.59108 22.0994 9.44108 22.0994 9.44108C22.0994 9.44108 22.1834 9.24108 22.4484 9.18508C22.7144 9.12908 23.0614 9.23908 23.0614 9.23908C23.0614 9.23908 22.7874 9.47908 22.5214 9.53408L22.5224 9.53508Z" fill="#0B4D5E"/>
<path d="M22.4616 8.54914C22.4526 8.78614 22.6046 8.89914 22.6046 8.89914C22.6046 8.89914 22.7646 8.79814 22.7726 8.56114C22.7816 8.32414 22.6366 8.04114 22.6366 8.04114C22.6366 8.04114 22.4706 8.31214 22.4616 8.54914Z" fill="#0B4D5E"/>
<path d="M22.9825 8.88818C22.7695 8.99218 22.6045 8.89918 22.6045 8.89918C22.6045 8.89918 22.6325 8.71218 22.8465 8.60818C23.0595 8.50518 23.3765 8.52318 23.3765 8.52318C23.3765 8.52318 23.1945 8.78518 22.9825 8.88818Z" fill="#0B4D5E"/>
<path d="M22.6724 7.96806C22.7484 8.17706 22.9194 8.22206 22.9194 8.22206C22.9194 8.22206 23.0224 8.07806 22.9464 7.86906C22.8714 7.66006 22.6444 7.46606 22.6444 7.46606C22.6444 7.46606 22.5954 7.76006 22.6714 7.96906L22.6724 7.96806Z" fill="#0B4D5E"/>
<path d="M23.2445 8.08002C23.0955 8.24502 22.9205 8.22202 22.9205 8.22202C22.9205 8.22202 22.8795 8.05002 23.0275 7.88502C23.1765 7.72002 23.4585 7.62402 23.4585 7.62402C23.4585 7.62402 23.3935 7.91502 23.2445 8.08002Z" fill="#0B4D5E"/>
<path d="M22.7145 7.35617C22.8375 7.54217 23.0135 7.54517 23.0135 7.54517C23.0135 7.54517 23.0805 7.38117 22.9585 7.19517C22.8365 7.00917 22.5715 6.87317 22.5715 6.87317C22.5715 6.87317 22.5925 7.17017 22.7145 7.35617Z" fill="#0B4D5E"/>
<path d="M23.2965 7.33211C23.1905 7.52711 23.0145 7.54511 23.0145 7.54511C23.0145 7.54511 22.9335 7.38711 23.0405 7.19211C23.1465 6.99711 23.3995 6.83911 23.3995 6.83911C23.3995 6.83911 23.4025 7.13711 23.2965 7.33211Z" fill="#0B4D5E"/>
<path d="M22.5894 6.7931C22.7494 6.9231 22.9074 6.8761 22.9074 6.8761C22.9074 6.8761 22.9204 6.7121 22.7604 6.5831C22.6004 6.4531 22.3274 6.4071 22.3274 6.4071C22.3274 6.4071 22.4294 6.6641 22.5894 6.7931Z" fill="#0B4D5E"/>
<path d="M23.0973 6.60807C23.0583 6.81107 22.9073 6.87607 22.9073 6.87607C22.9073 6.87607 22.7923 6.75907 22.8313 6.55607C22.8703 6.35407 23.0493 6.14307 23.0493 6.14307C23.0493 6.14307 23.1353 6.40507 23.0973 6.60807Z" fill="#0B4D5E"/>
<path d="M21.7765 5.64104C21.9095 5.64604 21.9735 5.56104 21.9735 5.56104C21.9735 5.56104 21.9165 5.47104 21.7835 5.46604C21.6505 5.46104 21.4915 5.54304 21.4915 5.54304C21.4915 5.54304 21.6435 5.63604 21.7765 5.64104Z" fill="#0B4D5E"/>
<path d="M21.9674 5.3481C22.0264 5.4681 21.9734 5.5601 21.9734 5.5601C21.9734 5.5601 21.8684 5.5441 21.8094 5.4241C21.7514 5.3041 21.7614 5.1261 21.7614 5.1261C21.7614 5.1261 21.9084 5.2281 21.9674 5.3481Z" fill="#0B4D5E"/>
<path d="M22.0594 5.92802C22.2284 5.95902 22.3254 5.86202 22.3254 5.86202C22.3254 5.86202 22.2694 5.73702 22.0994 5.70502C21.9294 5.67402 21.7114 5.74902 21.7114 5.74902C21.7114 5.74902 21.8904 5.89702 22.0594 5.92802Z" fill="#0B4D5E"/>
<path d="M22.3584 5.58907C22.4104 5.75307 22.3264 5.86207 22.3264 5.86207C22.3264 5.86207 22.1944 5.82207 22.1424 5.65807C22.0904 5.49407 22.1374 5.26807 22.1374 5.26807C22.1374 5.26807 22.3064 5.42607 22.3584 5.59007V5.58907Z" fill="#0B4D5E"/>
<path d="M22.3804 6.32814C22.5514 6.41514 22.6854 6.34314 22.6854 6.34314C22.6854 6.34314 22.6664 6.19114 22.4954 6.10414C22.3244 6.01714 22.0674 6.02614 22.0674 6.02614C22.0674 6.02614 22.2094 6.24114 22.3804 6.32814Z" fill="#0B4D5E"/>
<path d="M22.8085 6.06209C22.8115 6.25409 22.6865 6.34209 22.6865 6.34209C22.6865 6.34209 22.5595 6.25709 22.5555 6.06509C22.5525 5.87309 22.6745 5.64709 22.6745 5.64709C22.6745 5.64709 22.8045 5.86909 22.8075 6.06109L22.8085 6.06209Z" fill="#0B4D5E"/>
<path d="M21.5114 5.24515C21.6374 5.28715 21.6674 5.39015 21.6674 5.39015C21.6674 5.39015 21.5824 5.45415 21.4564 5.41115C21.3294 5.36915 21.2104 5.23615 21.2104 5.23615C21.2104 5.23615 21.3844 5.20215 21.5114 5.24515Z" fill="#0B4D5E"/>
</svg>
