<svg width="31" height="32" viewBox="0 0 31 32" fill="none" xmlns="http://www.w3.org/2000/svg">
<path d="M10.782 1.11719H10.0553C9.5809 1.11719 9.19629 1.5018 9.19629 1.97624V5.9365C9.19629 6.41094 9.5809 6.79555 10.0553 6.79555H10.782C11.2565 6.79555 11.6411 6.41094 11.6411 5.9365V1.97624C11.6411 1.5018 11.2565 1.11719 10.782 1.11719Z" fill="#04B488" stroke="#0B4D5E" stroke-width="0.4" stroke-miterlimit="10"/>
<path d="M23.0008 1.11719H22.2741C21.7997 1.11719 21.415 1.5018 21.415 1.97624V5.9365C21.415 6.41094 21.7997 6.79555 22.2741 6.79555H23.0008C23.4752 6.79555 23.8598 6.41094 23.8598 5.9365V1.97624C23.8598 1.5018 23.4752 1.11719 23.0008 1.11719Z" fill="#04B488" stroke="#0B4D5E" stroke-width="0.4" stroke-miterlimit="10"/>
<path d="M0.435547 24.2943H29.0437V28.7847C29.0437 29.9154 28.1273 30.8317 26.9967 30.8317H3.71552C1.90393 30.8317 0.435547 29.3634 0.435547 27.5518V24.2943Z" fill="#8AE5CC" stroke="#0B4D5E" stroke-width="0.4" stroke-miterlimit="10"/>
<path d="M0.434843 24.1804L29.043 24.1804V17.4165L0.434843 17.4165V24.1804Z" fill="#04B488" stroke="#0B4D5E" stroke-width="0.4" stroke-miterlimit="10"/>
<path d="M0.434843 17.3324L29.043 17.3324V10.5684L0.434843 10.5684V17.3324Z" fill="#04B488" stroke="#0B4D5E" stroke-width="0.4" stroke-miterlimit="10"/>
<path d="M3.71552 3.93103H26.9967C28.1266 3.93103 29.0437 4.84808 29.0437 5.97803V10.5681H0.435547V7.211C0.435547 5.40077 1.90529 3.93103 3.71552 3.93103Z" fill="#0B4D5E" stroke="#0B4D5E" stroke-width="0.4" stroke-miterlimit="10"/>
<path d="M28.2607 3.99219H5.45871C4.40715 3.99219 3.55469 4.90866 3.55469 6.03918V28.7834C3.55469 29.9139 4.40715 30.8303 5.45871 30.8303H28.2607C29.3122 30.8303 30.1647 29.9139 30.1647 28.7834V6.03918C30.1647 4.90866 29.3122 3.99219 28.2607 3.99219Z" fill="#F0F4FF" stroke="#0B4D5E" stroke-width="0.4" stroke-miterlimit="10"/>
<path fill-rule="evenodd" clip-rule="evenodd" d="M24.4044 14.3325C24.8717 14.7856 24.8832 15.5317 24.4301 15.999L16.0491 24.6419C15.8272 24.8708 15.5219 25 15.203 25C14.8842 25 14.5789 24.8708 14.3569 24.6419L10.1665 20.3205C9.71333 19.8532 9.72481 19.107 10.1921 18.6539C10.6594 18.2008 11.4055 18.2123 11.8587 18.6795L15.203 22.1284L22.7379 14.3581C23.191 13.8908 23.9372 13.8793 24.4044 14.3325Z" fill="#04B488" stroke="#0B4D5E" stroke-width="0.4" stroke-miterlimit="10"/>
<path d="M5.45871 3.97266H28.2607C29.3117 3.97266 30.1647 4.88971 30.1647 6.01965V9.44086H3.55469V6.01965C3.55469 4.88971 4.40769 3.97266 5.45871 3.97266Z" fill="#04B488" stroke="#0B4D5E" stroke-width="0.4" stroke-miterlimit="10"/>
<path d="M10.7988 8C11.6273 8 12.2988 7.32843 12.2988 6.5C12.2988 5.67157 11.6273 5 10.7988 5C9.9704 5 9.29883 5.67157 9.29883 6.5C9.29883 7.32843 9.9704 8 10.7988 8Z" fill="#0B4D5E" stroke="#0B4D5E" stroke-width="0.4" stroke-miterlimit="10"/>
<path d="M22.8984 8C23.7269 8 24.3984 7.32843 24.3984 6.5C24.3984 5.67157 23.7269 5 22.8984 5C22.07 5 21.3984 5.67157 21.3984 6.5C21.3984 7.32843 22.07 8 22.8984 8Z" fill="#0B4D5E" stroke="#0B4D5E" stroke-width="0.4" stroke-miterlimit="10"/>
<path d="M11.6419 1.97624C11.6419 1.5018 11.2573 1.11719 10.7829 1.11719C10.3084 1.11719 9.92383 1.5018 9.92383 1.97624V5.9365C9.92383 6.41094 10.3084 6.79555 10.7829 6.79555C11.2573 6.79555 11.6419 6.41094 11.6419 5.9365V1.97624Z" fill="#F0F4FF" stroke="#0B4D5E" stroke-width="0.4" stroke-miterlimit="10"/>
<path d="M23.8597 1.97624C23.8597 1.5018 23.4751 1.11719 23.0007 1.11719C22.5262 1.11719 22.1416 1.5018 22.1416 1.97624V5.9365C22.1416 6.41094 22.5262 6.79555 23.0007 6.79555C23.4751 6.79555 23.8597 6.41094 23.8597 5.9365V1.97624Z" fill="#F0F4FF" stroke="#0B4D5E" stroke-width="0.4" stroke-miterlimit="10"/>
</svg>
