<svg width="24" height="26" viewBox="0 0 24 26" fill="none" xmlns="http://www.w3.org/2000/svg">
<g clip-path="url(#clip0_11923_113)">
<path d="M19.8323 20.0911C19.7524 19.7325 19.6424 19.383 19.5028 19.0466H2.58682C2.44728 19.383 2.33759 19.7325 2.25741 20.0911C2.18139 20.432 2.13349 20.7808 2.11475 21.1356H19.9746C19.9562 20.7808 19.9083 20.432 19.8323 20.0911Z" fill="#8AE5CC" stroke="#0B4D5E" stroke-width="0.3" stroke-miterlimit="10"/>
<path d="M18.9489 18.0021C18.7025 17.6262 18.4175 17.2753 18.0943 16.9577H3.99551C3.67235 17.2749 3.38736 17.6262 3.14091 18.0021C2.92466 18.3323 2.73826 18.6815 2.58691 19.0466H19.5029C19.3516 18.6815 19.1652 18.3323 18.9489 18.0021Z" fill="#8AE5CC" stroke="#0B4D5E" stroke-width="0.3" stroke-miterlimit="10"/>
<path d="M16.703 15.9233L16.6849 15.9132L14.7789 14.8687H7.3114L5.40539 15.9132L5.38734 15.9233C4.87083 16.2062 4.40465 16.5564 3.99609 16.9577H18.0946C17.686 16.556 17.2195 16.2062 16.703 15.9233Z" fill="#04B488" stroke="#0B4D5E" stroke-width="0.3" stroke-miterlimit="10"/>
<path d="M12.8725 13.8242L12.6414 12.8228H11.0446L9.21705 13.8242L7.31104 14.8687H14.7785L12.8725 13.8242Z" fill="#04B488" stroke="#0B4D5E" stroke-width="0.3" stroke-miterlimit="10"/>
<path d="M19.7972 0.478683H2.29284C1.54272 0.478683 0.93457 1.08683 0.93457 1.83695V3.92589H21.1558L21.1555 1.83695C21.1555 1.08683 20.5473 0.478683 19.7972 0.478683Z" fill="#8AE5CC" stroke="#0B4D5E" stroke-width="0.3" stroke-miterlimit="10"/>
<path d="M19.7976 25.167H2.29284C1.54272 25.167 0.93457 24.5588 0.93457 23.8087H21.1555C21.1555 24.5588 20.5477 25.167 19.7976 25.167Z" fill="#0B4D5E" stroke="#0B4D5E" stroke-width="0.3" stroke-miterlimit="10"/>
<path d="M0.93457 21.7198V22.7642V23.8087H21.1558V22.7642V21.7198H0.93457Z" fill="#0B4D5E" stroke="#0B4D5E" stroke-width="0.3" stroke-miterlimit="10"/>
<path d="M6.62427 16.3811L13.1178 12.8228L19.6113 16.3811C21.1205 17.208 22.0588 18.7922 22.0588 20.5129V21.7198H4.17676V20.5129C4.17676 18.7919 5.11501 17.208 6.62427 16.3811Z" fill="#F0F4FF" stroke="#0B4D5E" stroke-width="0.3" stroke-miterlimit="10"/>
<path d="M21.6964 25.167L4.88628 25.167C4.13651 25.167 3.52802 24.5585 3.52802 23.8087V21.7198L23.0547 21.7198V23.8087C23.0547 24.5585 22.4462 25.167 21.6964 25.167Z" fill="#F0F4FF" stroke="#0B4D5E" stroke-width="0.3" stroke-miterlimit="10"/>
<path d="M23.0547 3.92624L3.52802 3.92624V1.83729C3.52802 1.08752 4.13651 0.479028 4.88628 0.479028L21.6964 0.479028C22.4462 0.479028 23.0547 1.08752 23.0547 1.83729V3.92624Z" fill="#F0F4FF" stroke="#0B4D5E" stroke-width="0.3" stroke-miterlimit="10"/>
<path d="M23.0552 3.98804H0.93457V4.5101H23.0552V3.98804Z" fill="#04B488" stroke="#0B4D5E" stroke-width="0.3" stroke-miterlimit="10"/>
<path d="M23.0657 21.1977H0.93457V21.7198H23.0657V21.1977Z" fill="#0B4D5E" stroke="#0B4D5E" stroke-width="0.3" stroke-miterlimit="10"/>
<path d="M2.11523 4.5101C2.13363 4.86485 2.18188 5.21371 2.2579 5.55457C2.33774 5.91314 2.44777 6.26269 2.58731 6.59905H19.5033C19.6429 6.26269 19.7526 5.91314 19.8327 5.55457C19.9088 5.21371 19.9567 4.86485 19.9754 4.5101H2.11523Z" fill="#8AE5CC" stroke="#0B4D5E" stroke-width="0.3" stroke-miterlimit="10"/>
<path d="M2.58691 6.59906C2.73826 6.96423 2.92466 7.31343 3.14091 7.64353C3.38736 8.01946 3.67235 8.37039 3.99551 8.68801H18.094C18.4171 8.37074 18.7021 8.01946 18.9486 7.64353C19.1648 7.31343 19.3512 6.96423 19.5026 6.59906H2.58691Z" fill="#8AE5CC" stroke="#0B4D5E" stroke-width="0.3" stroke-miterlimit="10"/>
<path d="M3.99561 8.68799C4.40416 9.0896 4.87034 9.43949 5.38685 9.72239L5.4049 9.73246L7.31091 10.7769H14.7784L16.6844 9.73246L16.7025 9.72239C17.219 9.43949 17.6852 9.08925 18.0937 8.68799H3.99561Z" fill="#04B488" stroke="#0B4D5E" stroke-width="0.3" stroke-miterlimit="10"/>
<path d="M7.31104 10.7769L9.21705 11.8214L11.0446 12.8228H12.6414L12.8725 11.8214L14.7785 10.7769H7.31104Z" fill="#04B488" stroke="#0B4D5E" stroke-width="0.3" stroke-miterlimit="10"/>
<path d="M18.7758 9.7224L13.1178 12.8228L7.45978 9.7224C5.4354 8.61301 4.17676 6.48832 4.17676 4.17999V3.9259H22.0588V4.17999C22.0588 6.48832 20.8001 8.61301 18.7758 9.7224Z" fill="#F0F4FF" stroke="#0B4D5E" stroke-width="0.3" stroke-miterlimit="10"/>
<path d="M18.934 9.58319L13.5943 12.509V14.0693L17.875 16.4148C19.5207 17.3166 20.544 19.0438 20.544 20.9204V21.1973H5.69189V20.9204C5.69189 19.0438 6.71485 17.3166 8.36087 16.4148L12.6415 14.0693V12.509L7.30182 9.58319H18.934Z" fill="#04B488" stroke="#0B4D5E" stroke-width="0.3" stroke-miterlimit="10"/>
</g>
<defs>
<clipPath id="clip0_11923_113">
<rect width="22.4431" height="25" fill="white" transform="translate(0.77832 0.322815)"/>
</clipPath>
</defs>
</svg>
