<svg width="29" height="31" viewBox="0 0 29 31" fill="none" xmlns="http://www.w3.org/2000/svg">
<path d="M13.2399 30.7587C13.2399 30.7587 14.5324 30.7934 15.1166 30.7587C16.1161 30.4657 16.7697 29.3475 16.504 28.2714L16.065 26.4932H12.1865L13.2399 30.7587Z" fill="#8AE5CC" stroke="#0B4D5E" stroke-width="0.4" stroke-miterlimit="10"/>
<path d="M12.188 26.4924H16.0664L14.9966 22.1612H11.1182L12.188 26.4924Z" fill="#04B488" stroke="#0B4D5E" stroke-width="0.4" stroke-miterlimit="10"/>
<path d="M11.1167 22.1634H14.9952L13.9263 17.8331H10.0479L11.1167 22.1634Z" fill="#0B4D5E" stroke="#0B4D5E" stroke-width="0.4" stroke-miterlimit="10"/>
<path d="M2.36873 9.98541V15.8173C1.36922 15.8173 0.55957 15.0076 0.55957 14.0081V11.7946C0.55957 10.7951 1.36922 9.98541 2.36873 9.98541Z" fill="#0B4D5E" stroke="#0B4D5E" stroke-width="0.4" stroke-miterlimit="10"/>
<path d="M14.3011 30.7664H12.9346C11.1921 30.7664 9.67413 29.578 9.25698 27.8866L6.75684 17.7628H11.0899L14.3011 30.7664Z" fill="#F0F4FF" stroke="#0B4D5E" stroke-width="0.4" stroke-miterlimit="10"/>
<path d="M24.4748 0.614302C21.8706 3.63657 18.59 5.94868 14.8877 7.35347C13.744 7.78705 12.5245 7.98695 11.3014 7.98969L4.13135 8.00521C2.89268 8.00521 1.8877 9.01019 1.8877 10.2489V15.5558C1.8877 16.7945 2.89177 17.7995 4.13135 17.7995L11.2959 17.8278C12.5181 17.8342 13.7367 18.0359 14.8777 18.4722C18.549 19.8743 21.8514 22.1618 24.431 25.142L24.4757 25.1931C24.7112 25.4652 25.0207 25.5838 25.3237 25.5783L25.3429 0.22819C25.0334 0.218149 24.7149 0.334987 24.4748 0.614302Z" fill="#F0F4FF" stroke="#0B4D5E" stroke-width="0.4" stroke-miterlimit="10"/>
<path d="M25.3465 25.5608C26.4748 25.5608 27.3894 19.8941 27.3894 12.904C27.3894 5.91378 26.4748 0.247131 25.3465 0.247131C24.2183 0.247131 23.3037 5.91378 23.3037 12.904C23.3037 19.8941 24.2183 25.5608 25.3465 25.5608Z" fill="#0B4D5E" stroke="#0B4D5E" stroke-width="0.4" stroke-miterlimit="10"/>
<path d="M27.0393 5.78846C26.6714 2.44215 26.0516 0.243225 25.3497 0.243225C24.6477 0.243225 24.027 2.44215 23.6592 5.78846H27.0393Z" fill="#8AE5CC" stroke="#0B4D5E" stroke-width="0.4" stroke-miterlimit="10"/>
<path d="M23.3096 12.5108H27.3898C27.3779 10.0225 27.2519 7.71311 27.0402 5.78619H23.6601C23.4483 7.71219 23.3224 10.0225 23.3105 12.5108H23.3096Z" fill="#04B488" stroke="#0B4D5E" stroke-width="0.4" stroke-miterlimit="10"/>
<path d="M23.3057 12.8998C23.3057 15.211 23.407 17.3707 23.5822 19.2364H27.1157C27.29 17.3716 27.3923 15.211 27.3923 12.8998C27.3923 12.7693 27.3895 12.6424 27.3895 12.5128H23.3093C23.3093 12.6424 23.3057 12.7693 23.3057 12.8998Z" fill="#04B488" stroke="#0B4D5E" stroke-width="0.4" stroke-miterlimit="10"/>
<path d="M27.1145 19.2354H23.5811C23.9343 23.0107 24.5924 25.5565 25.3482 25.5565C26.104 25.5565 26.7612 23.0107 27.1154 19.2354H27.1145Z" fill="#0B4D5E" stroke="#0B4D5E" stroke-width="0.4" stroke-miterlimit="10"/>
<path d="M26.1177 7.34774C26.0858 7.32674 26.0538 7.31396 26.021 7.31396C26.0192 7.31396 26.0173 7.31579 26.0155 7.31579C26.0119 7.31579 26.0082 7.31305 26.0055 7.31305V7.31944C25.5144 7.37329 25.1191 9.84971 25.1191 12.903C25.1191 15.9563 25.5144 18.4336 26.0055 18.4866V18.4921C26.0055 18.4921 26.0109 18.4902 26.0146 18.4893C26.0173 18.4893 26.0192 18.4911 26.0219 18.4911C26.0548 18.4911 26.0885 18.4784 26.1205 18.4565C27.2834 18.1479 28.1049 17.101 28.1049 15.8878V9.91726C28.1049 8.70324 27.2816 7.65535 26.1177 7.34774Z" fill="#F0F4FF" stroke="#0B4D5E" stroke-width="0.4" stroke-miterlimit="10"/>
</svg>
