<svg width="35" height="30" viewBox="0 0 35 30" fill="none" xmlns="http://www.w3.org/2000/svg">
<g id="Group 2147207211">
<path id="Vector" d="M9.14492 7.69425V4.04956H2.87427C1.43629 4.04956 0.270508 5.21534 0.270508 6.65332V7.69425H9.14492Z" fill="#8AE5CC" stroke="#0B4D5E" stroke-width="0.4" stroke-miterlimit="10"/>
<path id="Vector_2" d="M9.14492 7.68555H0.270508V11.3302H9.14492V7.68555Z" fill="#8AE5CC" stroke="#0B4D5E" stroke-width="0.4" stroke-miterlimit="10"/>
<path id="Vector_3" d="M9.14492 11.3215H0.270508V14.9662H9.14492V11.3215Z" fill="#04B488" stroke="#0B4D5E" stroke-width="0.4" stroke-miterlimit="10"/>
<path id="Vector_4" d="M9.14492 14.9578H0.270508V18.6025H9.14492V14.9578Z" fill="#04B488" stroke="#0B4D5E" stroke-width="0.4" stroke-miterlimit="10"/>
<path id="Vector_5" d="M9.14492 22.23H0.270508V25.8747H9.14492V22.23Z" fill="#0B4D5E" stroke="#0B4D5E" stroke-width="0.4" stroke-miterlimit="10"/>
<path id="Vector_6" d="M9.14492 18.594H0.270508V22.2387H9.14492V18.594Z" fill="#04B488" stroke="#0B4D5E" stroke-width="0.4" stroke-miterlimit="10"/>
<path id="Vector_7" d="M2.87427 29.5107H9.14492V25.866H0.270508V26.9069C0.270508 28.3449 1.43629 29.5107 2.87427 29.5107Z" fill="#0B4D5E" stroke="#0B4D5E" stroke-width="0.4" stroke-miterlimit="10"/>
<path id="Vector_8" d="M16.2757 14.434V4.04956H5.89122C4.58126 4.04956 3.51929 5.11154 3.51929 6.42149V27.1907C3.51929 28.5007 4.58126 29.5627 5.89122 29.5627H26.6605C27.9704 29.5627 29.0324 28.5007 29.0324 27.1907V16.8063H18.6479C17.338 16.8063 16.276 15.7443 16.276 14.4343L16.2757 14.434Z" fill="#F0F4FF" stroke="#0B4D5E" stroke-width="0.4" stroke-miterlimit="10"/>
<g id="Group">
<path id="Vector_9" d="M27.8922 3.48633V0.418335H21.6216C20.1836 0.418335 19.0178 1.58412 19.0178 3.0221V3.48633H27.8922Z" fill="#8AE5CC" stroke="#0B4D5E" stroke-width="0.4" stroke-miterlimit="10"/>
<path id="Vector_10" d="M27.8925 3.48645H19.0181V6.67238H27.8925V3.48645Z" fill="#8AE5CC" stroke="#0B4D5E" stroke-width="0.4" stroke-miterlimit="10"/>
<path id="Vector_11" d="M27.8925 6.65222H19.0181V9.85834H27.8925V6.65222Z" fill="#04B488" stroke="#0B4D5E" stroke-width="0.4" stroke-miterlimit="10"/>
<path id="Vector_12" d="M21.6218 13.1622H27.8925V10.0942H19.0181V10.5585C19.0181 11.9965 20.1838 13.1622 21.6218 13.1622Z" fill="#0B4D5E" stroke="#0B4D5E" stroke-width="0.4" stroke-miterlimit="10"/>
<path id="Vector_13" d="M31.8984 0.437134H23.8858C22.5759 0.437134 21.5139 1.49908 21.5139 2.80906V10.8216C21.5139 12.1316 22.5759 13.1935 23.8858 13.1935H31.8984C33.2084 13.1935 34.2703 12.1316 34.2703 10.8216V2.80906C34.2703 1.49908 33.2084 0.437134 31.8984 0.437134Z" fill="#F0F4FF" stroke="#0B4D5E" stroke-width="0.4" stroke-miterlimit="10"/>
</g>
</g>
</svg>
